# xmcd
#
# Track frame offsets:
#	150
#	23448
#	44545
#	66343
#	83973
#	100233
#	120720
#	142065
#	162715
#	179788
#	200175
#	219140
#	237785
#
# Disc length: 3434 seconds
#
# Revision: 5
# Processed by: cddbd v1.5.2PL0 Copyright (c) Steve Scherf et al.
# Submitted via: audiograbber 1.83.01
#
DISCID=c30d680d
DTITLE=Joe Cocker - Have a little faith
DYEAR=1994
DGENRE=Pop
TTITLE0=Let the healing begin
TTITLE1=Have a little faith in me
TTITLE2=The simple things
TTITLE3=Summer in the city
TTITLE4=The great divide
TTITLE5=Highway highway
TTITLE6=Too cool
TTITLE7=Soul time
TTITLE8=Out of the blue
TTITLE9=Angeline
TTITLE10=Hell and highwater
TTITLE11=Standing knee deep in a river
TTITLE12=Take me home
EXTD=YEAR: 1994
EXTT0=
EXTT1=
EXTT2=
EXTT3=
EXTT4=
EXTT5=
EXTT6=
EXTT7=
EXTT8=
EXTT9=
EXTT10=
EXTT11=
EXTT12=
PLAYORDER=
